# xmcd CD database file
#
# Track frame offsets:
#	150
#	53839
#	98914
#	151516
#	208298
#
# Disc length: 3137 seconds
#
# Revision: 0
# Processed by: cddbd v1.5PL3 Copyright (c) Steve Scherf et al.
# Submitted via: CDex 1.51
#
DISCID=390c3f05
DTITLE=Von Freeman - Have No Fear
DYEAR=1975
DGENRE=Jazz
TTITLE0=Mr. Lucky
TTITLE1=Swinging the Blues
TTITLE2=Polka Dots and Moonbeams
TTITLE3=Have No Fear, Soul Is Here
TTITLE4=Boomerang
EXTD=YEAR: 1975
EXTT0=
EXTT1=
EXTT2=
EXTT3=
EXTT4=
PLAYORDER=
